<svg xmlns="http://www.w3.org/2000/svg" width="30" height="30" viewBox="0 0 30 30">
  <g id="Grupo_5955" data-name="Grupo 5955" transform="translate(-200.541 -176.98)">
    <path id="Caminho_2489" data-name="Caminho 2489" d="M221.444,191.641c-3.77-1.128-4.569-1.927-5.7-5.7l-.541-1.807-.541,1.807c-1.127,3.77-1.926,4.569-5.7,5.7l-1.808.541,1.808.541c3.771,1.128,4.57,1.927,5.7,5.7l.541,1.807.541-1.807c1.128-3.77,1.927-4.568,5.7-5.7l1.807-.541Zm-1.943.541a6.39,6.39,0,0,0-4.294,4.294,6.389,6.389,0,0,0-4.294-4.294,6.388,6.388,0,0,0,4.294-4.294A6.39,6.39,0,0,0,219.5,192.182Z" fill="#f20089"/>
    <rect id="Retângulo_2586" data-name="Retângulo 2586" width="30" height="30" transform="translate(200.541 176.98)" fill="#fff" opacity="0"/>
  </g>
</svg>
